<svg xmlns="http://www.w3.org/2000/svg" width="88.388" height="88.388" viewBox="0 0 88.388 88.388">
  <g id="Icon_ionic-ios-checkmark-circle-outline" data-name="Icon ionic-ios-checkmark-circle-outline" transform="translate(0)">
    <path id="Path_12086" data-name="Path 12086" d="M55.946,16.307l-3.739-3.846a.8.8,0,0,0-.595-.255h0a.772.772,0,0,0-.595.255L25.095,38.574,15.661,29.14a.822.822,0,0,0-1.19,0l-3.782,3.782a.847.847,0,0,0,0,1.211l11.9,11.9a3.763,3.763,0,0,0,2.486,1.211,3.943,3.943,0,0,0,2.465-1.169h.021L55.967,17.518A.908.908,0,0,0,55.946,16.307Z" transform="translate(10.898 14.48)" fill="#158040"/>
    <path id="Path_12087" data-name="Path 12087" d="M47.569,9.324A38.251,38.251,0,0,1,74.616,74.616a38.251,38.251,0,0,1-54.1-54.1,37.992,37.992,0,0,1,27.048-11.2m0-5.949A44.194,44.194,0,1,0,91.763,47.569,44.187,44.187,0,0,0,47.569,3.375Z" transform="translate(-3.375 -3.375)" fill="#158040"/>
  </g>
</svg>
