<?xml version="1.0" standalone="no"?>
<!DOCTYPE svg PUBLIC "-//W3C//DTD SVG 20010904//EN"
 "http://www.w3.org/TR/2001/REC-SVG-20010904/DTD/svg10.dtd">
<svg version="1.0" xmlns="http://www.w3.org/2000/svg"
 width="155.000000pt" height="65.000000pt" viewBox="0 0 155.000000 65.000000"
 preserveAspectRatio="xMidYMid meet">

<g transform="translate(0.000000,65.000000) scale(0.100000,-0.100000)"
fill="#000000" stroke="none">
<path d="M415 629 c-130 -10 -396 -46 -404 -55 -3 -3 17 -3 44 0 315 39 1122
39 1440 0 28 -4 47 -3 44 0 -9 10 -271 44 -424 55 -161 12 -538 12 -700 0z"/>
<path d="M853 483 c-10 -3 -13 -38 -13 -124 0 -112 1 -119 20 -119 18 0 20 7
20 75 0 41 3 75 8 75 4 0 28 -34 52 -75 29 -49 51 -75 62 -75 16 0 18 12 18
120 0 113 -1 120 -20 120 -18 0 -20 -7 -20 -61 0 -51 -2 -60 -14 -50 -8 6 -23
34 -35 61 -12 28 -26 50 -30 50 -5 0 -15 2 -23 4 -7 3 -19 2 -25 -1z"/>
<path d="M1373 483 c-10 -3 -13 -38 -13 -124 0 -112 1 -119 20 -119 18 0 20 7
20 75 0 41 3 75 8 75 4 0 26 -34 50 -75 30 -54 48 -75 62 -75 19 0 20 7 20
120 0 113 -1 120 -20 120 -18 0 -20 -7 -20 -60 0 -33 -4 -60 -8 -60 -5 0 -19
23 -32 51 -14 28 -33 57 -44 65 -22 15 -24 15 -43 7z"/>
<path d="M10 360 c0 -113 1 -120 20 -120 19 0 20 7 20 120 0 113 -1 120 -20
120 -19 0 -20 -7 -20 -120z"/>
<path d="M110 361 c0 -114 1 -121 20 -121 18 0 20 7 20 77 0 42 3 73 7 69 4
-4 20 -38 34 -74 22 -55 31 -67 49 -67 19 0 27 11 47 65 35 94 43 96 43 6 0
-75 1 -77 23 -74 21 3 22 6 22 118 l0 115 -31 3 c-29 3 -32 -1 -57 -56 -15
-33 -27 -64 -27 -69 0 -5 -5 -14 -12 -21 -9 -9 -19 5 -43 65 -28 73 -32 78
-62 81 l-33 3 0 -120z"/>
<path d="M415 470 c-10 -17 5 -30 35 -30 l29 0 3 -97 c3 -93 4 -98 26 -101 22
-3 22 -1 22 97 l0 100 32 3 c22 2 34 9 36 21 3 15 -6 17 -87 17 -49 0 -93 -4
-96 -10z"/>
<path d="M650 360 l0 -120 70 0 c63 0 70 2 70 20 0 17 -7 20 -50 20 -49 0 -50
1 -50 30 0 28 2 30 39 30 26 0 41 5 45 16 10 25 -2 34 -45 34 -35 0 -39 3 -39
24 0 23 5 25 47 28 36 2 49 7 51 21 3 15 -5 17 -67 17 l-71 0 0 -120z"/>
<path d="M1165 468 c-2 -7 -20 -58 -40 -113 -19 -55 -35 -103 -35 -107 0 -5 8
-8 18 -8 12 0 23 13 31 36 12 33 15 35 54 32 37 -3 42 -6 51 -35 7 -25 14 -33
32 -33 l23 0 -41 120 c-38 107 -45 120 -65 120 -13 0 -26 -6 -28 -12z m33
-116 c-28 -5 -33 4 -18 35 l13 28 12 -30 c12 -27 12 -30 -7 -33z"/>
<path d="M673 149 c-29 -11 -53 -24 -53 -28 0 -11 68 -41 93 -41 12 0 31 7 41
15 19 14 18 15 -5 24 -19 8 -11 9 39 9 35 0 66 3 69 6 10 10 -64 36 -99 35
-18 0 -57 -9 -85 -20z"/>
<path d="M20 132 c31 -20 438 -62 590 -61 l55 0 -35 18 c-29 15 -81 20 -312
30 -153 6 -285 14 -295 17 -15 4 -15 4 -3 -4z"/>
<path d="M1435 130 c-44 -5 -169 -11 -278 -15 -157 -6 -200 -11 -204 -22 -3
-8 -3 -16 0 -19 15 -15 542 37 577 57 18 10 24 10 -95 -1z"/>
<path d="M824 111 c-17 -4 -53 -23 -79 -41 l-49 -34 29 -12 c36 -16 104 -18
138 -5 27 10 67 49 67 64 0 4 -12 -1 -26 -12 -15 -12 -38 -21 -53 -21 -23 0
-20 4 22 27 40 22 45 28 30 34 -22 9 -39 9 -79 0z"/>
</g>
</svg>
