<svg xmlns="http://www.w3.org/2000/svg" width="28.673" height="29.879" viewBox="0 0 28.673 29.879">
  <path id="Path_7" data-name="Path 7" d="M776.427,483.675a3.662,3.662,0,0,1-1.133,2.68,3.958,3.958,0,0,1-5.545,0A3.961,3.961,0,0,1,768.6,483.4a4,4,0,0,1,1.117-2.9,3.738,3.738,0,0,1,2.8-1.15,3.828,3.828,0,0,1,2.8,1.1,3.7,3.7,0,0,1,1.115,2.747Zm-16.894-14.788a7.509,7.509,0,0,1,.45-2.429,1.592,1.592,0,0,1,.956-.958.57.57,0,0,1,.1-.01,1.686,1.686,0,0,1,1.3,1.251,5.644,5.644,0,0,1-.5,3.438,20.049,20.049,0,0,1-2.552,4.635c.015-1.98.1-3.959.244-5.927m17,8.779a3.971,3.971,0,0,0-1.786-1.425,6.258,6.258,0,0,0-2.713-.5,6.721,6.721,0,0,0-5.1,2.232,7.934,7.934,0,0,0-2.007,5.563,8.58,8.58,0,0,0,.62,3.259,2.953,2.953,0,0,1-5.212.059,7.6,7.6,0,0,1-.638-2.819q-.194-2.03-.3-4.076a23.807,23.807,0,0,0,5.7-8.52,9.073,9.073,0,0,0,.613-5.623c-.6-2.185-2.845-4.238-5.424-3.743a4.963,4.963,0,0,0-3.488,2.965,10.455,10.455,0,0,0-.74,3.587,92.838,92.838,0,0,0-.211,9.835,20.07,20.07,0,0,1-4.413,2.778l1.456,3.17a23.168,23.168,0,0,0,3.185-1.778c.044.58.1,1.161.151,1.738a10.5,10.5,0,0,0,1.05,4.159,6.593,6.593,0,0,0,5.664,3.349c.057,0,.115,0,.172,0a6.6,6.6,0,0,0,4.659-2.214,6.817,6.817,0,0,0,4.3,1.432,5.88,5.88,0,0,0,2.954-.7,3.151,3.151,0,0,0,1.51-1.46v1.717H780.1V476.121h-3.572Z" transform="translate(-751.43 -462)" fill="#00682d"/>
</svg>
