<svg xmlns="http://www.w3.org/2000/svg" width="21.785" height="62.589" viewBox="0 0 21.785 62.589">
  <g id="Group_37351" data-name="Group 37351" transform="translate(-184.32 -325.034)">
    <path id="Path_604" data-name="Path 604" d="M1117.9,448.649c.821.429.965-.186,4.046,1.008,2.009.779,3.247,2.559,4.1,2.58a8.266,8.266,0,0,1-1.85-.2c-.633-.186-3.772-1.5-4.362-1.8-.591-.336-1.728-.951-1.93-1.587" transform="translate(-919.94 -105.566)" fill="#00682d" fill-rule="evenodd"/>
    <path id="Path_605" data-name="Path 605" d="M1127.917,455.247a13.392,13.392,0,0,1-3.47,4.9s-1.015,1.122-.9,1.723a5.856,5.856,0,0,0,.583,1.351,2.852,2.852,0,0,1-1.973-2.523,65.745,65.745,0,0,0,5.76-5.454" transform="translate(-922.028 -108.804)" fill="#00682d" fill-rule="evenodd"/>
    <path id="Path_606" data-name="Path 606" d="M1112.082,490.087a7.707,7.707,0,0,0,2.03-2.087l-.014,12.939s-2.592-6.035-2.016-10.852" transform="translate(-917.042 -124.879)" fill="#00682d" fill-rule="evenodd"/>
    <path id="Path_607" data-name="Path 607" d="M1108.12,506.22a15.114,15.114,0,0,0,.209-1.952c0-.7-.619-4.6-.619-4.6l-.986,4.675s-3.24-3.953-5.321-6.327l.792-5.447.785-5.683s-3.485,10.323-3.485,11.073,2.728,4.9,6.882,8.014c0,0-1.238,3.838-1.583,3.838a19.961,19.961,0,0,0-2.11.429l-1.49.608a7.991,7.991,0,0,1-1.181-.036c-.3-.043-.914.121-.813.464.151.486,2.664.572,4.355.665,2.023.135,1.958-.923,1.958-.923s1.512-3.575,2.274-4.017c0,0,.843.951.843,1.258a16.5,16.5,0,0,1-.677,2.273c-.129.328-1.576.508-1.9.508-.281,0-.231.486-.231.486a12.761,12.761,0,0,0,2.548.371c1.066,0,1.39-.328,1.591-.75a10.418,10.418,0,0,0,.806-2.809c0-.844-1.59-.636-2.649-2.123" transform="translate(-910.756 -124.335)" fill="#00682d" fill-rule="evenodd"/>
    <path id="Path_608" data-name="Path 608" d="M1104.261,443.09h.922l-.3,3.545a3.5,3.5,0,0,1,2.513,3.275c.166,2.7-.454,6.269,1.029,8.02a6.9,6.9,0,0,1-6.752,11.316c-4.924-.315-6.6-3.088-7.062-4.411-.468-1.387-.786-4.776.676-6.82,1.461-2.1,3.91-5.8,4.766-9.771.367-1.852,1.619-2.61,2.368-2.467a8.734,8.734,0,0,1,1.677.638Z" transform="translate(-908.314 -102.837)" fill="#00682d" fill-rule="evenodd"/>
    <path id="Path_609" data-name="Path 609" d="M1101.486,420.006s4.737-1.973,8.034.18c0,0,.374-6.985-4.916-6.985s-3.118,6.8-3.118,6.8" transform="translate(-911.666 -88.167)" fill="#00682d" fill-rule="evenodd"/>
    <path id="Path_610" data-name="Path 610" d="M1118.913,425.728c-.31-.093-.432-.629-.432-.629a6.934,6.934,0,0,1,2.665-1.973,7.328,7.328,0,0,0-2.232,2.6" transform="translate(-920.224 -93.039)" fill="#00682d" fill-rule="evenodd"/>
    <path id="Path_611" data-name="Path 611" d="M1124.493,420.029s-1.274-.078-1.274-1.236c0-.965,1.094-1.3,1.476-1.3,1.023,0,.943.629.943.629a2.474,2.474,0,0,0-.641-.165.593.593,0,0,0-.612.558,1.476,1.476,0,0,0,.864,1.35s-.864.93-.864,1.244c0,.292.352.328.526.328.633,0,.95-1.323.95-1.323s.562.53.907.53.518-.186.518-.436a.99.99,0,0,0-.864-.944s.612-.357.612-.7c0-.385-.079-.529-.317-.529a1.334,1.334,0,0,0-.777.2,1.294,1.294,0,0,1,1.31-.894c.706,0,.641.536.641.872s-.641,1.05-.641,1.05a1.523,1.523,0,0,1,.828,1.28c0,.894-.533,1.116-.792,1.116a.967.967,0,0,1-.972-.78s-.216,1.68-.986,1.68c-1.2,0-1.857-.665-1.857-1.451s1.021-1.08,1.021-1.08" transform="translate(-922.55 -90.2)" fill="#00682d" fill-rule="evenodd"/>
    <path id="Path_612" data-name="Path 612" d="M1103.874,435.33a1.275,1.275,0,0,0,.28-1.651,1.139,1.139,0,0,1-1.253-.186c1.62-.308,1.059-.973,1.059-.973s.705-.4.705-.672-.3-.386-.3-.386c1.331-.408,1.166-2.417,1.166-2.417a15.894,15.894,0,0,0-3.161-.4c-2.607,1.294-2.793,2.659-2.793,2.659a3.233,3.233,0,0,0,2.656,2.709c1.088,2.3-.8,1.116-.8,1.116-.454.128-1.533-.486-1.533-.486a4.191,4.191,0,0,0,.446.915,2.337,2.337,0,0,1-1.792-1.287l-.252.587a1.658,1.658,0,0,1-.576-1.309,2.3,2.3,0,0,1,.381-1.365l-.576.336c-.13-.8.749-1.765.749-1.765l-.468.115c0-.629,1.13-1.916,1.13-1.916-5.471.987-6.774,4.011-6.774,5.155a2.68,2.68,0,0,0,2.859,2.323,7.039,7.039,0,0,0,2.757-.507,5.5,5.5,0,0,1-2.873,1.329c-1.354,0-3.8-.6-3.8-3.288,0-1.845,2.267-6.655,9.647-6.655,6.854,0,11.778,4.947,11.778,4.947a20.217,20.217,0,0,0-6.263-2.9v1.4a4.892,4.892,0,0,1-2.4,4.575" transform="translate(-906.79 -95.092)" fill="#00682d" fill-rule="evenodd"/>
    <path id="Path_613" data-name="Path 613" d="M1111.5,437.064c.252-.064.367-.465.554-.465s.224.1.331.1.088-.236.3-.236c.172,0,.453.172.648.172-.08.064-.432.879-.9.879-.511,0-.583-.4-.929-.45" transform="translate(-916.797 -99.585)" fill="#00682d" fill-rule="evenodd"/>
    <path id="Path_614" data-name="Path 614" d="M1116.141,432.136c.029.665-1.08.708-1.08.708.554-.9,1.08-.708,1.08-.708" transform="translate(-918.546 -97.452)" fill="#00682d" fill-rule="evenodd"/>
    <path id="Path_615" data-name="Path 615" d="M1115.617,430.914c.115.286-.5.286-1.022.879.014-.3.741-1.129,1.022-.879" transform="translate(-918.317 -96.838)" fill="#00682d" fill-rule="evenodd"/>
    <path id="Path_616" data-name="Path 616" d="M1109.447,433.081a.676.676,0,0,1,.5-.122c.209.05.324.322.324.322-.41-.243-.857-.072-.828-.2" transform="translate(-915.79 -97.861)" fill="#00682d" fill-rule="evenodd"/>
    <path id="Path_617" data-name="Path 617" d="M1108.727,434.376a.811.811,0,0,1,1.094.15c-.922.115-1.094-.15-1.094-.15" transform="translate(-915.437 -98.484)" fill="#00682d" fill-rule="evenodd"/>
  </g>
</svg>
