<svg xmlns="http://www.w3.org/2000/svg" width="60.915" height="28.167" viewBox="0 0 60.915 28.167">
  <g id="Group_37352" data-name="Group 37352" transform="translate(-211.391 -359.456)">
    <path id="Path_1" data-name="Path 1" d="M1119.816,530.092a11.044,11.044,0,0,1-4.482.463,4.709,4.709,0,0,1,1.591-2.9,3.236,3.236,0,0,1,3.642-.619,1.607,1.607,0,0,1,.845,1.453c-.064.642-.646,1.224-1.6,1.6m-1.179,5.1h0a4.1,4.1,0,0,1-2.735-1.385,10.776,10.776,0,0,0,5.691-.879c2.45-1.182,3.615-2.891,3.279-4.812a5.579,5.579,0,0,0-4.2-4.474,7.223,7.223,0,0,0-6.089,1.5,7.89,7.89,0,0,0-2.8,6.94,6.51,6.51,0,0,0,5.787,6.4,10.63,10.63,0,0,0,1.722.145,10.089,10.089,0,0,0,4.577-1.136l.147-.073.008-3.533-.4.216a8.378,8.378,0,0,1-5,1.089" transform="translate(-852.622 -157.735)" fill="#00682d"/>
    <path id="Path_2" data-name="Path 2" d="M984.878,531.972a3.659,3.659,0,0,1-5.375,0,3.994,3.994,0,0,1-1.111-2.829,3.719,3.719,0,0,1,1.109-2.724,3.815,3.815,0,0,1,5.379,0,3.72,3.72,0,0,1,1.109,2.724,4,4,0,0,1-1.111,2.829m-2.688-10.5a7.616,7.616,0,0,0-7.637,7.671,7.683,7.683,0,0,0,2.238,5.552,7.485,7.485,0,0,0,10.78,0,7.714,7.714,0,0,0,2.221-5.552,7.442,7.442,0,0,0-2.222-5.45,7.361,7.361,0,0,0-5.381-2.222" transform="translate(-747.182 -156.206)" fill="#00682d"/>
    <path id="Path_3" data-name="Path 3" d="M915.938,533.049a3.822,3.822,0,0,1-5.614,0,4.153,4.153,0,0,1-1.156-2.941,3.877,3.877,0,0,1,1.157-2.839,3.978,3.978,0,0,1,5.611,0,3.876,3.876,0,0,1,1.157,2.839,4.154,4.154,0,0,1-1.156,2.941M913.131,522.6a7.259,7.259,0,0,0-3.972,1.124v-.889h-3.6L905.6,544.7h3.562v-8.068a7.334,7.334,0,0,0,9.236-1.082,7.556,7.556,0,0,0,2.175-5.438,7.284,7.284,0,0,0-2.174-5.333,7.2,7.2,0,0,0-5.265-2.174" transform="translate(-694.169 -157.073)" fill="#00682d"/>
    <path id="Path_4" data-name="Path 4" d="M1047.671,527.361v11.333h3.571v-14.87h-3.571Z" transform="translate(-803.366 -158.013)" fill="#00682d"/>
    <path id="Path_5" data-name="Path 5" d="M1048.444,496.385a2.043,2.043,0,0,0-1.506.606,2.007,2.007,0,0,0-.605,1.475,2.073,2.073,0,0,0,.59,1.506,2.031,2.031,0,0,0,1.521.605,1.98,1.98,0,0,0,1.475-.621,2.057,2.057,0,0,0,.605-1.49,2.121,2.121,0,0,0-2.08-2.08" transform="translate(-802.338 -136.929)" fill="#00682d"/>
    <path id="Path_6" data-name="Path 6" d="M1076.924,526.435v-2.61h-3.434v14.858h3.537v-5.964a5.429,5.429,0,0,1,1.339-4.07,5.032,5.032,0,0,1,3.64-1.288h1v-3.537h-1.2a5.5,5.5,0,0,0-4.877,2.61" transform="translate(-823.205 -158.014)" fill="#00682d"/>
  </g>
</svg>
