<svg xmlns="http://www.w3.org/2000/svg" width="20.994" height="18" viewBox="0 0 20.994 18">
  <g id="Icon_ionic-ios-log-in" data-name="Icon ionic-ios-log-in" transform="translate(-2.945 -5.125)">
    <path id="Path_12094" data-name="Path 12094" d="M22.143,5.625H8.62A2.222,2.222,0,0,0,6.4,7.847a.676.676,0,1,0,1.352,0,.872.872,0,0,1,.869-.869H22.143a.872.872,0,0,1,.869.869V20.4a.872.872,0,0,1-.869.869H8.62a.872.872,0,0,1-.869-.869.676.676,0,0,0-1.352,0A2.222,2.222,0,0,0,8.62,22.625H22.143A2.222,2.222,0,0,0,24.364,20.4V7.847A2.222,2.222,0,0,0,22.143,5.625Z" transform="translate(-0.925)" fill="#158040" stroke="#158040" stroke-width="1"/>
    <path id="Path_12095" data-name="Path 12095" d="M11.9,19.527a.682.682,0,0,0,0,.956l0,0a.7.7,0,0,0,.473.188.653.653,0,0,0,.478-.2l3.989-3.98a.949.949,0,0,0,0-1.41l-4.086-4.076a.672.672,0,0,0-.478-.2.66.66,0,0,0-.478.2.673.673,0,0,0,0,.956l3.149,3.1H4.121a.676.676,0,0,0,0,1.352H14.969Z" transform="translate(0 -1.625)" fill="#158040" stroke="#158040" stroke-width="1"/>
  </g>
</svg>
