<svg xmlns="http://www.w3.org/2000/svg" width="21.538" height="20" viewBox="0 0 21.538 20">
  <path id="Icon_ionic-ios-star" data-name="Icon ionic-ios-star" d="M22.971,10.3H15.9L13.75,3.885a.779.779,0,0,0-1.462,0L10.139,10.3H3.019a.771.771,0,0,0-.769.769.565.565,0,0,0,.014.13.739.739,0,0,0,.322.543l5.813,4.1L6.168,22.322a.771.771,0,0,0,.264.865.744.744,0,0,0,.433.188.942.942,0,0,0,.481-.173l5.673-4.043L18.692,23.2a.9.9,0,0,0,.481.173.691.691,0,0,0,.428-.188.762.762,0,0,0,.264-.865l-2.231-6.486L23.4,11.7l.139-.12a.807.807,0,0,0,.25-.514A.814.814,0,0,0,22.971,10.3Z" transform="translate(-2.25 -3.375)" fill="#158040"/>
</svg>
